<svg xmlns="http://www.w3.org/2000/svg" width="95" height="91" fill="none" viewBox="0 0 95 91"><path fill="#DD0202" fill-rule="evenodd" d="M65.667 34.665c10.532 0 20.489 2.432 29.333 6.752v9.664h-.38l-.38 39.168-78.615.376-.107.375H0c4.546-31.84 32.211-56.335 65.667-56.335Z" clip-rule="evenodd"/><path fill="#DD0202" fill-rule="evenodd" d="m80.988 22.621 5.845-.857 2.291.56V42.71l-8.136.125V22.621ZM69.514 27.28l3.566-.523 1.397.342v12.433l-4.963.076V27.28Z" clip-rule="evenodd"/><path fill="#DD0202" fill-rule="evenodd" d="m66.18 25.18 3.565-.523 1.398.342v12.433l-4.963.076V25.18Z" clip-rule="evenodd"/><path fill="#DD0202" fill-rule="evenodd" d="m55.596 11.416 3.973 1.098 4.208-2.141 3.206.835v28.529H55.596v-28.32ZM72.939 15.512l5.331-3.564 6.087 3.121v28.608H72.94V15.513Z" clip-rule="evenodd"/><path fill="#fff" d="M75.112 15.84v29.77l-.635.051V15.914l.635-.074Z"/><path fill="#DD0202" fill-rule="evenodd" d="M90.717 2.645 95 2.017v16.88l-4.283.066V2.645Z" clip-rule="evenodd"/><path fill="#DD0202" fill-rule="evenodd" d="M87.168 5.431 95 4.265v38.524h-7.832V5.431Z" clip-rule="evenodd"/><path fill="#fff" d="M90.044 5.942V45.35l-.84.067V6.041l.84-.099Z"/><path fill="#fff" d="m88.222 7.457 1.303-.175v.461l-1.301.176-.002-.462Zm2.934-.395L95 6.544v.461l-3.844.518v-.461Zm-2.934 23.274 1.303-.046v.462l-1.301.045-.002-.461Zm2.934-.102L95 30.098v.462l-3.844.134v-.462Zm-2.934-1.423 1.303-.054v.46l-1.301.055-.002-.461Zm2.934-.122 3.844-.16v.461l-3.844.16v-.461Zm-2.934-2.929 1.303-.071v.461l-1.301.072-.002-.462Zm2.934-.16L95 25.387v.462l-3.844.21v-.46Zm-2.934-2.89 1.303-.09v.462l-1.301.089-.002-.461Zm2.934-.2L95 22.248v.46l-3.844.263v-.461Zm-2.934-4.376 1.303-.115v.462l-1.301.114-.002-.461Zm2.934-.259L95 17.537v.46l-3.844.34v-.462Zm-2.934-1.266 1.303-.124v.462l-1.301.123-.002-.461Zm2.934-.278L95 15.966v.461l-3.844.365v-.461Zm-2.934-1.247 1.303-.133v.462l-1.301.132-.002-.461Zm2.934-.298 3.844-.39v.461l-3.844.39v-.461Zm-2.934-1.228 1.303-.14v.46l-1.301.142-.002-.462Zm2.934-.317L95 12.825v.462l-3.844.415v-.46Zm-2.934-1.208 1.303-.15v.462l-1.301.15-.002-.462Zm2.934-.337L95 11.255v.461l-3.844.442v-.462Zm-2.934-2.713 1.303-.167v.461l-1.301.167-.002-.461Zm2.934-.376L95 8.114v.462l-3.844.492v-.461ZM83.632 32.899l-3.937-.115v-.353l3.937.115v.353Zm0 1.181-3.937-.094v-.353l3.937.094v.353Zm0-17.721-3.937-.396v-.353l3.937.396v.353Zm0 1.181-3.937-.375v-.353l3.937.375v.353Zm0 2.363-3.937-.335v-.353l3.937.335v.353Zm0 2.363-3.937-.295v-.353l3.937.295v.353Zm0 3.544-3.937-.235v-.353l3.937.235v.353Zm0 1.182-3.937-.215v-.353l3.937.215v.353Zm0 1.181-3.937-.195v-.353l3.937.195v.353Zm0 1.182-3.937-.175v-.353l3.937.175v.353Zm0 1.181-3.937-.155v-.353l3.937.155v.353Z"/><path fill="#BA7243" fill-rule="evenodd" d="M49.305 41.995c-.05 2.809-.622 9.29-1.575 11.55-3.324 7.881.644 9.487 4.737 10.192 9.563 1.647 19.909-7.797 21.2-17.155-3.576-6.914-7.487-14.335-6.35-21.213-6.025 5.543-11.987 11.083-18.012 16.626Z" clip-rule="evenodd"/><path fill="#F2F1F0" fill-rule="evenodd" d="M51.378 61.296c.547-1.455 1.248-2.519 2.37-3.1 1.416-.733 1.443-2.28 1.657-3.806.333-2.377 1.588-3.873 2.789-4.463 7.02-3.454 11.528-11.474 10.802-13.23 1.217-.267 1.014 1.027 1.886 2.291 1.256 1.821 3.986 4.038 4.364 5.243l8.362 2.766C88.074 48.553 91.903 49.76 95 51.26V91H87.27l-.624-2.684L85.773 91H20.714c.378-3.055.814-6.264 1.135-9.477.821-8.245 2.448-5.774 2.957-8.389.984-5.06 2.84-16.287 5.555-17.242a4.488 4.488 0 0 1 1.097-.247c1.71-1.669 11.117-3.711 11.536-4.944.767-2.251 3.187-4.976 6.274-7.498-.183 2.278.294 6.456-.607 8.275-.566 1.145-.184 2.347.078 3.13.733 2.191 2.583 3.927 2.639 6.69Z" clip-rule="evenodd"/><path fill="#fff" fill-rule="evenodd" d="m48.093 58.957.233-.065c.129-.036.354.358.503.88.15.522.166.974.037 1.01-.114.03-.12.033-.233.064-.129.036-.354-.358-.503-.88-.15-.522-.166-.973-.037-1.01Zm2.46 11.04c.549 0 .995.44.998.981a.981.981 0 0 1-.988.982.993.993 0 0 1-.998-.981.982.982 0 0 1 .989-.982Zm-1.268 12.641c.549 0 .956.44.911.982a1.094 1.094 0 0 1-1.075.982.894.894 0 0 1-.91-.982 1.094 1.094 0 0 1 1.074-.982Z" clip-rule="evenodd"/><path fill="#CAC4C3" fill-rule="evenodd" d="M33.389 81.102c.02.607.027 1.233.018 1.875-1.015.022.8 4.41 1.733 8.022h-16.8c-.068-5.125-.053-9.105-.947-10.816.126-.626.253-1.33.375-2.06.007-.363.057-.706.163-1.02.224-1.465.412-2.948.506-4.075-1.909-.279-3.205-.823-3.205-1.45 0-.641 1.362-1.197 3.35-1.47.093-.336.271-.289.577-.069a22.385 22.385 0 0 1 3.59-.066c.343-.336.814-.634 1.51-.91a38.407 38.407 0 0 1 3.035-1.03l.497-3.261a.672.672 0 0 1 .235-.392c.252-.32 1.022-.648 1.577-.72.22-.117.5-.188.792-.188 1.366 0 12.59-.516 11.51.732-1.865 2.15-.131 5.52-.906 6.03-6.156 4.045 4.008-.11-1.186 7.674-.357.534-1.369 1.542-2.446 1.542h-.86c-.22.226-.684.343-1.948.574-.32.347-.745.738-1.17 1.078ZM26.217 70.58c.244.086.457.18.635.277.034-.174.066-.36.096-.557-.278.073-.52.169-.73.28Zm57.39-23.583c4.782 1.558 8.527 2.843 11.393 4.09v.343c-5.014-2.462-14.353-5.327-18.717-3.654-1.715.657-2.37 2.129-3.149 3.703-1.973 3.997-4.448 7.542-5.582 8.28-2.04 1.326-5.82 3.207-5.48.473.277-2.224-5.213 1.379-9.907 5.19.212 1.311.33 2.403.406 3.118.044.412.074.696.1.817 1.016 4.594-.408 11.27-1.33 15.593-.416 1.95-.729 3.416-.664 3.95.058.48-.077 1.22-.282 2.1h-.389c.208-.88.348-1.613.295-2.055-.072-.594.246-2.086.67-4.072.915-4.29 2.328-10.919 1.33-15.437-.03-.135-.061-.43-.107-.858-.127-1.186-.365-3.416-.97-5.958-.024.36-.011.586-.012.58-.231-1.861-2.873-7.801-4.46-11.895-1.281-3.309-.725-4.21 2.486-7.345-.002 2.204.709 6.457-.48 8.716-.421.744 2.894 5.485 3.01 7.775a5.462 5.462 0 0 0-.401 1.182c.081.307.157.61.228.91 1.311-4.846 4.634-2.291 4.786-8.882.023-.97.647-2.538 1.987-2.945 1.419-.43 2.481-1.564 2.856-.981 1.447 2.25 4.729 2.77 5.747 6.895.501 2.033.763 1.846 1.937.447 3.728-4.445 5.435-7.773 6.343-12.844 1.297.262 6.068 2.007 8.357 2.764ZM95 71.73c-1.425 2.414-2.943 4.928-3.608 5.639-2.704 2.892.073-3.118 3.608-8.491v2.852Zm-12.012-6.126c-1.234 4.765-8.127 1.222-6.167 2.428.484.297 8.167 3-.19 4.166-3.219.45-5.87-.617.902 2.782.056.028 2.68 1.106-2.782 1.811-2.456.317-7.675 3.95-5.516 5.436 3.186 2.193-13.52 2.838-9.506 4.949 2.917 1.534 9.425.468 12.598 1.788 5.725 2.383 5.706-.962 6.752-1 3.57-.125 2.266 1.306-.271 3.037h9.432c-.24-1.267-.562-2.48-1.035-3.422-1.91-3.794 2.31-9.036-1.404-5.434-3.571 3.463.164-12.979.264-13.408.34-1.451-.314-3.477-1.58.704-.751 2.48.126-10.1-1.497-3.837Zm-39.402-14.85c-.281 1.326-2.265 6.551-3.638 7.953-1.5 1.53 2.488 1.691 3.536.963 2.497-1.736 3.554 1.343 3.186-1.758-.103-.873.445-2.859-1.587-3.168-.865-.132-.915-6.744-1.497-3.99Z" clip-rule="evenodd"/><path fill="#BA7243" fill-rule="evenodd" d="M10.798 59.875c6.306 1.468 12.28 3.136 18.587 4.605.188.814-.49 3.176-1.148 3.928-.107 1.638-.494 3.376-1.209 4.515-.933 1.486-8.922 2.68-9.62.837-1.324-3.493-7.161-10.669-6.61-13.885Z" clip-rule="evenodd"/><path fill="#DEAB71" d="M26.156 63.612a.242.242 0 0 1 .225-.258c.134-.01.251.09.261.222.043.548.001 1.15-.127 1.77-.269 1.297-.742 2.325-1.688 3.272-1.435 1.438-1.637 1.375-.298-.184.73-.85 1.284-2.095 1.509-3.184a5.899 5.899 0 0 0 .118-1.638Z"/><path fill="#57607D" fill-rule="evenodd" d="M14.665 40.084h10.478c.629 0 1.302.508 1.496 1.13l6.6 21.162c.193.621-.162 1.13-.791 1.13H21.97c-.629 0-1.302-.509-1.495-1.13l-6.6-21.162c-.194-.621.162-1.13.79-1.13Z" clip-rule="evenodd"/><path fill="#fff" fill-rule="evenodd" d="M14.19 40.352h10.654c.64 0 1.324.517 1.52 1.149l6.711 21.516c.197.632-.164 1.15-.803 1.15H21.618c-.64 0-1.309-.522-1.52-1.15l-7.196-21.26c-.212-.628.649-1.405 1.288-1.405Z" clip-rule="evenodd"/><path fill="#C8C4E5" fill-rule="evenodd" d="M25.98 40.876c.176.18.313.396.385.626l6.71 21.517c.197.632-.164 1.149-.804 1.149H27.79c-4.142-2.566-6.896-7.117-6.896-12.306 0-4.39 1.972-8.325 5.087-10.986Z" clip-rule="evenodd"/><path fill="#57607D" fill-rule="evenodd" d="M13.69 40.942h10.654c.639 0 1.323.517 1.52 1.15l6.71 21.516c.198.632-.164 1.15-.803 1.15H21.117c-.64 0-1.323-.518-1.52-1.15l-6.711-21.516c-.197-.633.164-1.15.804-1.15Z" clip-rule="evenodd"/><path fill="#202945" fill-rule="evenodd" d="m29.08 52.404.588 1.882c.28.9-1.657 1.654-5.022 2.477-.648.37-6.632 3.619-4.12 3.71 2.223-.453 3.218-.487 5.681-.893.78-.128 3.03-.72 4.036-.99.265-.07.508-.11.729-.122l.856 2.746c-4.846 2.291-2.419 3.316-4.33 3.316H21.118c-.639 0-1.323-.29-1.52-.922l-4.548-14.582c1.44-.978 2.15-1.795 3.454-2.464 1.471-.753 2.232-.51 2.642.27.423.805.09 1.43-.771 2.21-3.257 2.951-2.907 2.675-2.27 7.122 1.867-1.036 1.85-1.733 3.597-2.274 1.835-.569 5.025-1.18 6.94-1.46.157-.023.303-.03.44-.026Z" clip-rule="evenodd"/><path fill="#DEAB71" fill-rule="evenodd" d="M12.564 49.2c1.594-1.3 3.297-2.834 4.906-3.66 1.471-.753 2.232-.509 2.642.27.423.805.079 1.419-.771 2.21-.631.587-2.43 2.807-3.959 3.376-.44.113-.072 2.38.225 4.229 1.867-1.036 2.339-2.215 4.085-2.757 1.835-.568 5.025-1.18 6.94-1.46 2.269-.33 2.524 2.437 1.04 2.82-3.315.854-3.66.727-5.035 1.514-.648.37-6.632 3.618-4.12 3.71 2.223-.454 3.218-.487 5.681-.893.78-.129 3.03-.721 4.036-.99 2.854-.762 3.104 2.1 1.065 2.905-1.702.672-2.41.821-4.197 1.117-1.05.174-8.935 2.746-3.519 3.192l9.33-.032c-.09.437-.665.61-2.518 1.182-1.624.5-3.145.855-4.843.957-1.87.113-3.53-.359-4.973-.344-1.554.015-1.782-.823-2.646-1.284-3.497-.777-1.91-2.068-3.697-3.036-1.63-.622-1.512-2.353-1.367-2.734.505-1.33.824-6.049.694-7.595-.091-1.098.086-1.95 1.001-2.697Z" clip-rule="evenodd"/><path fill="#BA7243" fill-rule="evenodd" d="M20.224 46.114c.142.956-.478 1.59-.851 1.937-.633.588-2.462 2.775-3.991 3.345-.44.113-.072 2.38.225 4.228l-1.405 1.155c-1.032.665-.518.149-.075-.5 1.64-2.4-.874-3.32-1.857-4.085-.28-.217-.6-.983-.046-.824 2.363.678 2.432-.895 4.44-2.298.772-.541 3.41-1.844 3.56-2.958Zm8.332 6.973c-.058.527-.225.952-.884 1.14-3.293.936-3.66.727-5.035 1.514-.648.37-6.632 3.619-4.12 3.71a40.42 40.42 0 0 1 2.704-.457c-3.536 1.494-7.47 1.487-6.232.918.908-.417 2.075-1.569 3.406-2.506 1.511-1.064.743-1.405 1.773-1.795.841-.32 1.407-.23 4.697-1.33 1.494-.5.807-.285 1.458-.405.944.057 1.446-.097 1.768-.487.225-.272.552-1.09.465-.302Zm2.078 5.672c-.011.652-.464 1.371-1.335 1.715-1.702.671-2.41.82-4.197 1.117-1.05.174-8.935 2.745-3.519 3.192l9.33-.032c-.09.436-.762.259-2.615.83-1.624.501-3.144.855-4.842.958-1.87.113-3.534-.451-4.974-.345-.49.037-3.093-.892-1.36-1.93 1.702-1.018.377-1.313 1.458-1.93 3.873-2.205 7.207-1.256 12.054-3.575Z" clip-rule="evenodd"/><path fill="#BA7243" d="M28.802 57.91a.075.075 0 1 1 .048.142c-.297.097-.632.235-.863.433-.22.187-.346.433-.248.756.223.74.666.647 1.373.498.128-.027.265-.056.419-.084a.1.1 0 0 0 .033-.012c.069-.04.107-.158.121-.313.016-.171 0-.38-.037-.582a1.949 1.949 0 0 0-.196-.593.074.074 0 0 1 .027-.102.076.076 0 0 1 .104.027c.09.153.167.392.213.64.04.215.057.439.04.623-.018.201-.079.362-.196.43a.252.252 0 0 1-.082.03c-.14.025-.282.055-.415.083-.79.167-1.287.271-1.55-.602-.118-.392.032-.688.295-.912.25-.214.603-.36.913-.463ZM26.74 51.961a.075.075 0 1 1 .036.145c-.307.074-.655.184-.905.363-.238.168-.387.402-.32.73.155.75.608.693 1.33.6.134-.017.278-.035.427-.05a.102.102 0 0 0 .034-.009c.076-.036.125-.155.153-.312.031-.174.033-.388.013-.594a1.857 1.857 0 0 0-.139-.577.075.075 0 0 1 .036-.1.076.076 0 0 1 .101.035c.074.153.128.385.152.627.022.22.02.448-.013.635-.037.203-.112.362-.237.421a.261.261 0 0 1-.085.023c-.152.015-.292.033-.424.05-.807.103-1.314.168-1.496-.72-.082-.398.096-.68.38-.88.27-.193.636-.31.957-.387ZM17.934 45.413a.076.076 0 0 1 .105.018.074.074 0 0 1-.018.104c-.285.2-.597.45-.776.713-.167.245-.214.505.002.747.511.572.961.317 1.678-.088.13-.074.268-.152.42-.233a.14.14 0 0 0 .052-.046c.035-.053.039-.136.019-.233a1.341 1.341 0 0 0-.141-.358c-.144-.262-.36-.521-.544-.643a.074.074 0 0 1-.022-.104.076.076 0 0 1 .105-.02c.205.133.44.414.594.696.075.137.13.275.156.4.028.135.019.256-.041.345a.288.288 0 0 1-.106.095c-.146.078-.286.157-.417.23-.782.443-1.273.721-1.866.058-.274-.307-.219-.628-.015-.929.192-.282.518-.544.815-.752Z"/><path fill="#202945" fill-rule="evenodd" d="M22.007 42.75c.508 0 .987.407 1.07.91.083.502-.262.91-.77.91s-.987-.408-1.07-.91c-.083-.503.262-.91.77-.91ZM24.557 44.387c.508 0 .988.407 1.07.91.083.502-.261.91-.77.91-.508 0-.987-.408-1.07-.91-.083-.503.262-.91.77-.91ZM23.25 46.533c.508 0 .987.407 1.07.91.082.503-.262.91-.77.91-.509 0-.988-.407-1.07-.91-.084-.502.261-.91.77-.91Z" clip-rule="evenodd"/><path fill="#C8C4E5" d="M13.884 41.49a.076.076 0 0 1-.076-.075c0-.041.034-.075.076-.075h10.205c.308 0 .626.124.89.323.264.2.474.475.569.778l2.515 8.063a.075.075 0 0 1-.05.094.076.076 0 0 1-.095-.05l-2.515-8.063a1.45 1.45 0 0 0-.516-.703 1.36 1.36 0 0 0-.798-.292H13.884Z"/><path fill="#F2F1F0" fill-rule="evenodd" d="M28.557 71.429c.768-.447.975 5.617 1.745 12.556-.991.022.974 3.095 2.728 7.014H15.517c.095-2.246.108-3.6-.957-5.508.452-2.74.712-10.8.634-12.351-.098-1.984.056-2.058.687-1.591 2.805 2.076 10.322 1.25 12.676-.12Z" clip-rule="evenodd"/><path fill="#CAC4C3" fill-rule="evenodd" d="M15.518 91c.095-2.248.107-3.602-.958-5.51v-.002c.422.346 1.181.69 2.836.995.628.102 1.33.15 2.07.153.936.004 1.941-.064 2.948-.186a.19.19 0 0 1 .211.163.188.188 0 0 1-.165.21 24.413 24.413 0 0 1-2.995.187 14.839 14.839 0 0 1-1.762-.104c-.238 1.692-.09 3.012.323 4.093h-2.508Zm9.098-4.519a.188.188 0 1 1-.073-.368c1.438-.28 2.768-.651 3.776-1.053.923-.368 1.563-.753 1.746-1.104a.19.19 0 0 1 .255-.08c.093.047.13.16.082.252-.227.435-.937.879-1.942 1.28-1.031.41-2.385.788-3.844 1.073Z" clip-rule="evenodd"/><path fill="#DD0202" fill-rule="evenodd" d="m21.805 26.753 2.034 6.521-5.954-3.132 3.92-3.389Zm2.213 7.404c-.058.249-.271.418-.575.418H11.528c-.293 0-.6-.157-.812-.391l4.508-3.468.982.546c.136.076.31.063.434-.044l.633-.548 6.745 3.487Zm-13.63-.67-2.06-6.605 6.178 3.435-4.119 3.17Zm10.246-7.543H8.72c-.126 0-.209.047-.212.178l7.836 4.358 4.87-4.21c-.13-.172-.36-.326-.58-.326Z" clip-rule="evenodd"/><path fill="#DD0202" d="M21.485 24.463c-.5 0-.5-.751 0-.751h1.026c.768 0 1.532.6 1.756 1.319l.316 1.013c.146.47-.578.69-.724.22l-.316-1.013c-.127-.406-.595-.788-1.032-.788h-1.026Zm4.817 9.636c-.146-.47.578-.69.724-.22l.316 1.013c.249.797-.235 1.54-1.098 1.54h-1.258c-.5 0-.5-.752 0-.752h1.258c.352 0 .471-.256.374-.568l-.316-1.013ZM11.29 35.68c.5 0 .5.751 0 .751H10.03c-.768 0-1.532-.6-1.756-1.319L7.96 34.1c-.146-.47.578-.69.724-.22L9 34.892c.127.406.595.788 1.032.788h1.258Zm-5.05-9.636c.147.47-.577.69-.723.22L5.2 25.251c-.248-.798.234-1.54 1.099-1.54h1.488c.5 0 .5.752 0 .752H6.3c-.355 0-.472.258-.375.568l.316 1.013Z"/><path fill="#DEAB71" fill-rule="evenodd" d="M40.195 10.18c-1.621.647-1.665 5.455-2.066 8.93-.001 2.53.393 3.665.562 4.661.293 1.723.605 1.79 1.018 2.75-.542 2.112-.61 5.15 1.038 7.183 1.708 2.107 3.133 4.652 3.83 7.547.801 3.322 2.33 4.48 4.135 4.5 5.847.069 9.232-3.615 11.696-5.69 3.173-2.672 5.64-5.986 5.462-9.276-.68-12.538-2.469-18.211-4.217-23.083-6.959 1.444-14.499 1.035-21.458 2.479Z" clip-rule="evenodd"/><path fill="#BA7243" fill-rule="evenodd" d="M40.195 10.18c-1.303.52-2.265 5.835-2.05 9.709.234-2.433 2.059-3.824 5.495-2.966 6.56 1.638 11.673-3.269 13.373.446 2.338 5.11 4.356 2.559 8.181-.375-1.213-4.627-2.553-6.539-3.541-9.292-6.959 1.444-14.499 1.035-21.458 2.479Z" clip-rule="evenodd"/><path fill="#202945" fill-rule="evenodd" d="M45.377 12.469c3.16 1.375 8.787.702 10.787-.932 2.99-1.72.567 5.24 4.3 7.482 2.782 1.671.055 6.094 4.753 1.421 3.172.078.441 5.41 2.494 8.546-.203-4.74 7.037-24.106-2.439-25.843.639-.08 1.155-.024 1.887.06 2.044.233.402-.364-.065-.473-1.097-.254-2.087-.25-3.634.144l-.005-.008c-.3-1.001-.643-1.648-1.12-2.26-.254-.324-1.295-1.29-.331.206.3.466.5.788.651 1.129-2.857-2.818-7.307-2.362-16.355.293-9.305 2.731-11.18 6.831-10.593 12.423 1.287-3.247 1.312-.298 1.32 1.368.007 1.692.151 3.835 1.228 4.987-.095-10.212 2.397-10.6 7.122-8.543Z" clip-rule="evenodd"/><path fill="#DEAB71" fill-rule="evenodd" d="M66.07 30.367c2.56-.421 2.346-3.982 2.704-5.765 1.334-7.332-5.233-6.221-6.186-.57-.319 1.895.172 3.222.768 5.21l2.714 1.125Z" clip-rule="evenodd"/><path fill="#BA7243" fill-rule="evenodd" d="M52.828 37.85c-1.718 2.263-6.074 3.789-7.854.64-.895-1.583-1.375-1.574-.047-1.419 1.951.228 4.673-.003 7.639-.678 1.918-.436 1.596-.3.262 1.457Z" clip-rule="evenodd"/><path fill="#fff" fill-rule="evenodd" d="M44.572 37.031c.12.008.29.029.518.055 1.77.198 4.24-.003 6.931-.59.334-.073.592-.127.784-.157.036 1.02-2.946 1.902-4.91 1.982-3.18.13-2.625-.479-3.323-1.29Z" clip-rule="evenodd"/><path fill="#202945" d="M48.606 22.739c1.778-1.563 3.597-2.195 7.683-2.313 3.159-.092.08 1.53-.501 1.535-4.35.043-4.63.079-6.955 1.708-2.636 1.85-.811-.416-.227-.93ZM50.102 26.888c-.145.098-.569.407-.677.263-.109-.144-.066-1.084.08-1.181 1.736-1.172 4.206-.93 6.315-.752a.337.337 0 0 1 .314.342.308.308 0 0 1-.343.286c-1.948-.165-4.082-.042-5.689 1.042ZM42.696 27.331c.114.073.5.466.534.31.035-.158.114-1.066 0-1.138-1.034-.66-2.786-.882-3.476-.23-.495.47-.438.53.095.39.934-.248 1.881.052 2.847.668Z"/><path fill="#BA7243" fill-rule="evenodd" d="M46.202 34.4c1.292.035 2.329-.145 2.343.117.014.263-1 .868-2.292.834-1.292-.035-2.373-.696-2.387-.958-.014-.262 1.044-.027 2.336.007Z" clip-rule="evenodd"/><path fill="#202945" fill-rule="evenodd" d="M38.441 22.106c-.78.081-.256 1.453.297 1.369 1.659-.338 2.248.056 3.407.85 1.944 1.334.472-.537.04-.95-1.05-1-2.048-1.413-3.744-1.27Z" clip-rule="evenodd"/><path fill="#57607D" fill-rule="evenodd" d="M56.974.723c8.327.035 2.631 3.937 1.41 5.51-6.68 8.599-18.993-8.105-22.072 5.344.965-11.52 16.953-4.773 20.565-6.545-3.891-.09-9.181-2.379-15.658-.319 6.64-3.676 15.194-.016 18.273-.894-2.508.043-7.5-1.383-11.784-1.404 2.67-.92 10.36-1.111 12.217-.084.219-.22-.562-.693-2.951-1.608ZM63.822 3.416c-.637 1.247-1.922 2.89-3.616 4.648 1.118 1.503 1.627 2.798 2.298 4.96.529-1.415-.602-4.277-.949-5.409 1.05.89 1.525 1.75 2.19 3.694.646-1.299-1.222-6.4 2.51-3.394-.248-1.858-1.828-2.92-2.454-3.25 1.468-.04 2.636 1.202 3.34 2.044-.068-1.029-1.505-1.974-2.42-2.645 1.083.024 2.29.58 3.215 1.483-.426-1.71-3.062-2.337-4.114-2.131Z" clip-rule="evenodd"/><path fill="#BA7243" d="M65.05 21.556a.19.19 0 0 1-.267-.015.186.186 0 0 1 .015-.264c.522-.463.98-.737 1.376-.859.424-.13.782-.094 1.08.069.29.159.514.436.676.79.222.483.332 1.12.346 1.796a.188.188 0 0 1-.185.19.188.188 0 0 1-.193-.183c-.013-.627-.113-1.212-.313-1.65-.13-.281-.3-.497-.514-.615-.208-.114-.468-.137-.784-.04-.348.108-.758.357-1.237.781Z"/><path fill="#BA7243" fill-rule="evenodd" d="M64.472 25.472c.582 0 1.055 1.42 1.055 3.17 0 1.752-.473 3.172-1.055 3.172-.583 0-1.055-1.42-1.055-3.172 0-1.75.472-3.17 1.055-3.17Z" clip-rule="evenodd"/><path fill="#fff" fill-rule="evenodd" d="M65.313 25.154c.81 0 1.465.648 1.465 1.448 0 .8-.656 1.448-1.465 1.448a1.456 1.456 0 0 1-1.464-1.448c0-.8.656-1.448 1.464-1.448Z" clip-rule="evenodd"/><path fill="#fff" d="M65.21 26.707a.57.57 0 0 1 .697-.398c.303.08.483.389.402.689l-.945 3.488a.57.57 0 0 1-1.099-.29l.945-3.489Z"/></svg>